<svg width="582" height="124" viewBox="0 0 582 124" fill="none" xmlns="http://www.w3.org/2000/svg">
<mask id="mask0_131_54" style="mask-type:alpha" maskUnits="userSpaceOnUse" x="0" y="0" width="111" height="124">
<path d="M48.3939 121.479C52.6208 123.919 57.8284 123.919 62.0554 121.479L103.618 97.4821C107.845 95.0416 110.449 90.5317 110.449 85.6509V37.658C110.449 32.7771 107.845 28.2672 103.618 25.8267L62.0554 1.83029C57.8284 -0.610096 52.6208 -0.610096 48.3939 1.83029L6.83077 25.8267C2.60386 28.2672 0 32.7771 0 37.658V85.6509C0 90.5317 2.60386 95.0416 6.83077 97.4821L48.3939 121.479Z" fill="#D9D9D9"/>
</mask>
<g mask="url(#mask0_131_54)">
<path d="M87.3874 148.141L38.6688 176.269C34.3262 178.776 28.7733 177.288 26.2661 172.945L1.60917 130.238C-0.898045 125.896 0.589849 120.343 4.93248 117.836L53.6511 89.7079C57.9937 87.2007 63.5466 88.6886 66.0538 93.0312L90.7107 135.738C93.2179 140.081 91.73 145.634 87.3874 148.141Z" fill="#4285F4"/>
<path d="M49.2008 82L0.482162 110.128C-3.86046 112.635 -9.41336 111.147 -11.9206 106.804L-41.0282 56.3887C-43.5354 52.046 -42.0475 46.4931 -37.7049 43.9859L11.0137 15.8582C15.3564 13.351 20.9093 14.8389 23.4165 19.1815L52.5241 69.5973C55.0313 73.9399 53.5434 79.4928 49.2008 82Z" fill="#F9AB00"/>
<path d="M159.541 106.484L110.822 134.612C106.48 137.119 100.927 135.631 98.4198 131.288L58.0074 61.2921C55.5002 56.9495 56.9881 51.3966 61.3307 48.8894L110.049 20.7617C114.392 18.2544 119.945 19.7423 122.452 24.085L162.864 94.0812C165.372 98.4238 163.884 103.977 159.541 106.484Z" fill="#5BB974"/>
<path d="M105.598 13.0533L56.8795 41.181C52.5369 43.6882 46.984 42.2003 44.4768 37.8577L15.3692 -12.5581C12.862 -16.9007 14.3498 -22.4536 18.6925 -24.9609L67.4111 -53.0886C71.7537 -55.5958 77.3066 -54.1079 79.8138 -49.7653L108.921 0.650525C111.429 4.99315 109.941 10.546 105.598 13.0533Z" fill="#FF8BCB"/>
</g>
<path d="M180.321 64.4061V91H168.074V44.9855H180.321V49.7094C182.77 46.7351 186.882 44.1107 192.831 44.1107C198.429 44.1107 202.716 46.4727 205.253 50.4093C208.052 47.5224 212.426 44.1107 219.512 44.1107C228.96 44.1107 235.084 50.6717 235.084 60.6444V91H222.836V64.1436C222.836 58.9823 220.912 55.3082 215.838 55.3082C211.814 55.3082 207.702 58.37 207.702 64.4061V91H195.455V64.1436C195.455 58.9823 193.531 55.3082 188.457 55.3082C184.433 55.3082 180.321 58.37 180.321 64.4061ZM257.47 91.7873C248.46 91.7873 241.811 86.3636 241.811 78.2279C241.811 69.0425 249.16 65.1934 258.432 63.5313L269.892 61.3443V60.6444C269.892 56.7078 267.88 54.2584 262.806 54.2584C258.258 54.2584 255.896 56.2704 254.846 60.382L243.211 58.195C245.31 50.4093 252.309 44.1107 263.244 44.1107C274.879 44.1107 281.877 49.447 281.877 60.1196V78.9278C281.877 81.3772 282.927 82.1645 285.639 81.8146V91C277.853 92.1372 273.129 90.5626 271.117 86.7135C268.143 89.9502 263.506 91.7873 257.47 91.7873ZM269.892 74.6412V69.9173L260.882 71.7544C256.858 72.5417 253.884 73.8539 253.884 77.5281C253.884 80.6774 256.245 82.5144 259.92 82.5144C265.081 82.5144 269.892 79.8026 269.892 74.6412ZM317.652 91.9623C311.878 91.9623 307.504 89.6878 304.792 86.2761V106.571H292.545V44.9855H304.792V49.7094C307.504 46.3852 311.878 44.1107 317.652 44.1107C330.336 44.1107 337.685 54.9582 337.685 67.9928C337.685 81.1148 330.336 91.9623 317.652 91.9623ZM304.53 66.768V69.305C304.53 77.0907 308.904 81.4647 314.765 81.4647C321.676 81.4647 325.35 75.9534 325.35 67.9928C325.35 60.1196 321.676 54.6083 314.765 54.6083C308.904 54.6083 304.53 58.8948 304.53 66.768ZM405.11 67.9928C405.11 82.3395 395.838 91.9623 382.541 91.9623C369.244 91.9623 359.971 82.3395 359.971 67.9928C359.971 53.7335 369.244 44.1107 382.541 44.1107C395.838 44.1107 405.11 53.7335 405.11 67.9928ZM372.131 67.9928C372.131 76.7408 376.155 81.8146 382.541 81.8146C388.927 81.8146 392.863 76.7408 392.863 67.9928C392.863 59.3322 388.927 54.2584 382.541 54.2584C376.155 54.2584 372.131 59.3322 372.131 67.9928ZM435.318 27.4895V37.5497C434.181 37.4622 433.481 37.4622 432.169 37.4622C428.32 37.4622 426.308 38.5995 426.308 43.1484V44.9855H435.231V55.2207H426.308V91H414.061V55.2207H407.85V44.9855H414.061V42.4486C414.061 32.7383 419.31 27.3146 430.594 27.3146C432.344 27.3146 433.394 27.3146 435.318 27.4895ZM470.782 28.1894V91H458.535V28.1894H470.782ZM480.657 39.5618V28.1894H493.167V39.5618H480.657ZM493.079 44.9855V91H480.832V44.9855H493.079ZM525.874 27.4895V37.5497C524.737 37.4622 524.037 37.4622 522.725 37.4622C518.875 37.4622 516.863 38.5995 516.863 43.1484V44.9855H525.786V55.2207H516.863V91H504.616V55.2207H498.405V44.9855H504.616V42.4486C504.616 32.7383 509.865 27.3146 521.15 27.3146C522.9 27.3146 523.949 27.3146 525.874 27.4895ZM551.1 91.9623C537.54 91.9623 528.267 82.252 528.267 67.9928C528.267 54.4334 537.628 44.1107 550.662 44.1107C564.309 44.1107 571.657 54.2584 571.657 67.118V70.7046H539.99C540.864 77.703 545.151 81.9021 551.187 81.9021C555.911 81.9021 559.673 79.6276 561.072 75.1661L571.395 78.8403C568.071 87.2384 560.285 91.9623 551.1 91.9623ZM550.575 53.9085C545.676 53.9085 541.914 56.7953 540.427 62.394H559.498C559.41 57.8451 556.523 53.9085 550.575 53.9085Z" fill="black"/>
</svg>
