<svg width="604" height="165" viewBox="0 0 604 165" fill="none" xmlns="http://www.w3.org/2000/svg">
<path d="M202.321 84.4061V111H190.074V64.9855H202.321V69.7094C204.77 66.7351 208.882 64.1107 214.831 64.1107C220.429 64.1107 224.716 66.4727 227.253 70.4093C230.052 67.5224 234.426 64.1107 241.512 64.1107C250.96 64.1107 257.084 70.6717 257.084 80.6444V111H244.836V84.1436C244.836 78.9823 242.912 75.3082 237.838 75.3082C233.814 75.3082 229.702 78.37 229.702 84.4061V111H217.455V84.1436C217.455 78.9823 215.531 75.3082 210.457 75.3082C206.433 75.3082 202.321 78.37 202.321 84.4061ZM279.47 111.787C270.46 111.787 263.811 106.364 263.811 98.2279C263.811 89.0425 271.16 85.1934 280.432 83.5313L291.892 81.3443V80.6444C291.892 76.7078 289.88 74.2584 284.806 74.2584C280.258 74.2584 277.896 76.2704 276.846 80.382L265.211 78.195C267.31 70.4093 274.309 64.1107 285.244 64.1107C296.879 64.1107 303.877 69.447 303.877 80.1196V98.9278C303.877 101.377 304.927 102.165 307.639 101.815V111C299.853 112.137 295.129 110.563 293.117 106.713C290.143 109.95 285.506 111.787 279.47 111.787ZM291.892 94.6412V89.9173L282.882 91.7544C278.858 92.5417 275.884 93.8539 275.884 97.5281C275.884 100.677 278.245 102.514 281.92 102.514C287.081 102.514 291.892 99.8026 291.892 94.6412ZM339.652 111.962C333.878 111.962 329.504 109.688 326.792 106.276V126.571H314.545V64.9855H326.792V69.7094C329.504 66.3852 333.878 64.1107 339.652 64.1107C352.336 64.1107 359.685 74.9582 359.685 87.9928C359.685 101.115 352.336 111.962 339.652 111.962ZM326.53 86.768V89.305C326.53 97.0907 330.904 101.465 336.765 101.465C343.676 101.465 347.35 95.9534 347.35 87.9928C347.35 80.1196 343.676 74.6083 336.765 74.6083C330.904 74.6083 326.53 78.8948 326.53 86.768ZM427.11 87.9928C427.11 102.339 417.838 111.962 404.541 111.962C391.244 111.962 381.971 102.339 381.971 87.9928C381.971 73.7335 391.244 64.1107 404.541 64.1107C417.838 64.1107 427.11 73.7335 427.11 87.9928ZM394.131 87.9928C394.131 96.7408 398.155 101.815 404.541 101.815C410.927 101.815 414.863 96.7408 414.863 87.9928C414.863 79.3322 410.927 74.2584 404.541 74.2584C398.155 74.2584 394.131 79.3322 394.131 87.9928ZM457.318 47.4895V57.5497C456.181 57.4622 455.481 57.4622 454.169 57.4622C450.32 57.4622 448.308 58.5995 448.308 63.1484V64.9855H457.231V75.2207H448.308V111H436.061V75.2207H429.85V64.9855H436.061V62.4486C436.061 52.7383 441.31 47.3146 452.594 47.3146C454.344 47.3146 455.394 47.3146 457.318 47.4895ZM492.782 48.1894V111H480.535V48.1894H492.782ZM502.657 59.5618V48.1894H515.167V59.5618H502.657ZM515.079 64.9855V111H502.832V64.9855H515.079ZM547.874 47.4895V57.5497C546.737 57.4622 546.037 57.4622 544.725 57.4622C540.875 57.4622 538.863 58.5995 538.863 63.1484V64.9855H547.786V75.2207H538.863V111H526.616V75.2207H520.405V64.9855H526.616V62.4486C526.616 52.7383 531.865 47.3146 543.15 47.3146C544.9 47.3146 545.949 47.3146 547.874 47.4895ZM573.1 111.962C559.54 111.962 550.267 102.252 550.267 87.9928C550.267 74.4334 559.628 64.1107 572.662 64.1107C586.309 64.1107 593.657 74.2584 593.657 87.118V90.7046H561.99C562.864 97.703 567.151 101.902 573.187 101.902C577.911 101.902 581.673 99.6276 583.072 95.1661L593.395 98.8403C590.071 107.238 582.285 111.962 573.1 111.962ZM572.575 73.9085C567.676 73.9085 563.914 76.7953 562.427 82.394H581.498C581.41 77.8451 578.523 73.9085 572.575 73.9085Z" fill="black"/>
<circle cx="112.782" cy="71.4926" r="30.1203" transform="rotate(-18.5751 112.782 71.4926)" fill="#F9AB00"/>
<circle cx="99.7601" cy="112.982" r="30.1203" transform="rotate(-18.5751 99.7601 112.982)" fill="#AF5CF7"/>
<circle cx="56.278" cy="113.418" r="30.1203" transform="rotate(-18.5751 56.278 113.418)" fill="#4285F4"/>
<circle cx="42.4265" cy="72.1992" r="30.1203" transform="rotate(-18.5751 42.4265 72.1992)" fill="#5BB974"/>
<circle cx="77.3475" cy="46.288" r="30.1203" transform="rotate(-18.5751 77.3475 46.288)" fill="#FF8BCB"/>
</svg>
